name C:\Users\u0101727\Documents\MyRepositories\upper-imu-dc\Results\main_tracking\Case_45\FLX01_linearAccelerations_groundFrame.mot
datacolumns 4
datarows 105
range 5.00600000 5.63000000
endheader 
time	radius_imu_x	radius_imu_y	radius_imu_z	
          5.00600000	          0.96489307	         11.00039828	         -3.92104425	
          5.01200000	          1.02705635	         11.04879350	         -3.96008915	
          5.01800000	          1.08329868	         11.09663241	         -3.98760794	
          5.02400000	          1.13415521	         11.14276515	         -4.00507287	
          5.03000000	          1.18046273	         11.18588527	         -4.01441180	
          5.03600000	          1.22306052	         11.22442951	         -4.01746485	
          5.04200000	          1.26217934	         11.25642877	         -4.01533240	
          5.04800000	          1.29686483	         11.27963310	         -4.00797650	
          5.05400000	          1.32513370	         11.29213879	         -3.99467587	
          5.06000000	          1.34488378	         11.29293303	         -3.97494455	
          5.06600000	          1.35459945	         11.28183374	         -3.94915058	
          5.07200000	          1.35348791	         11.25921688	         -3.91820053	
          5.07800000	          1.34122631	         11.22579718	         -3.88313432	
          5.08400000	          1.31778040	         11.18251742	         -3.84475841	
          5.09000000	          1.28329052	         11.13047032	         -3.80356055	
          5.09600000	          1.23801658	         11.07082714	         -3.75979459	
          5.10200000	          1.18233527	         11.00481237	         -3.71349212	
          5.10800000	          1.11671285	         10.93364409	         -3.66461394	
          5.11400000	          1.04169764	         10.85851816	         -3.61307926	
          5.12000000	          0.95790764	         10.78059895	         -3.55882474	
          5.12600000	          0.86601302	         10.70101480	         -3.50178012	
          5.13200000	          0.76673267	         10.62087784	         -3.44191481	
          5.13800000	          0.66080689	         10.54127082	         -3.37915151	
          5.14400000	          0.54898319	         10.46325148	         -3.31335699	
          5.15000000	          0.43200915	         10.38785434	         -3.24429555	
          5.15600000	          0.31062132	         10.31610455	         -3.17161188	
          5.16200000	          0.18557188	         10.24902767	         -3.09480906	
          5.16800000	          0.05763412	         10.18767405	         -3.01327829	
          5.17400000	         -0.07236317	         10.13312543	         -2.92632152	
          5.18000000	         -0.20351885	         10.08649438	         -2.83320602	
          5.18600000	         -0.33484053	         10.04890381	         -2.73319599	
          5.19200000	         -0.46527522	         10.02142115	         -2.62564774	
          5.19800000	         -0.59370685	         10.00501669	         -2.51001720	
          5.20400000	         -0.71899907	         10.00049391	         -2.38592023	
          5.21000000	         -0.84004451	         10.00841757	         -2.25316865	
          5.21600000	         -0.95580101	         10.02906807	         -2.11170431	
          5.22200000	         -1.06538382	         10.06237290	         -1.96169608	
          5.22800000	         -1.16808066	         10.10791178	         -1.80339997	
          5.23400000	         -1.26339359	         10.16492530	         -1.63718142	
          5.24000000	         -1.35106018	         10.23233223	         -1.46346317	
          5.24600000	         -1.43107981	         10.30877957	         -1.28269965	
          5.25200000	         -1.50369934	         10.39266264	         -1.09534064	
          5.25800000	         -1.56942745	         10.48219343	         -0.90183725	
          5.26400000	         -1.62900364	         10.57544443	         -0.70263857	
          5.27000000	         -1.68337215	         10.67040775	         -0.49817828	
          5.27600000	         -1.73365314	         10.76506852	         -0.28893341	
          5.28200000	         -1.78104256	         10.85749294	         -0.07534796	
          5.28800000	         -1.82679332	         10.94588628	          0.14207768	
          5.29400000	         -1.87214332	         11.02865484	          0.36282560	
          5.30000000	         -1.91825415	         11.10446549	          0.58636576	
          5.30600000	         -1.96618131	         11.17229121	          0.81214545	
          5.31200000	         -2.01676228	         11.23147704	          1.03966439	
          5.31800000	         -2.07063126	         11.28172792	          1.26844117	
          5.32400000	         -2.12818801	         11.32308986	          1.49805396	
          5.33000000	         -2.18957844	         11.35592273	          1.72813584	
          5.33600000	         -2.25472497	         11.38084099	          1.95835172	
          5.34200000	         -2.32332863	         11.39862587	          2.18839488	
          5.34800000	         -2.39493742	         11.41013796	          2.41791757	
          5.35400000	         -2.46900099	         11.41619678	          2.64648086	
          5.36000000	         -2.54494881	         11.41747840	          2.87348100	
          5.36600000	         -2.62224446	         11.41441937	          3.09808894	
          5.37200000	         -2.70049570	         11.40712088	          3.31916856	
          5.37800000	         -2.77946015	         11.39532215	          3.53524214	
          5.38400000	         -2.85908072	         11.37838696	          3.74444340	
          5.39000000	         -2.93952136	         11.35530339	          3.94451987	
          5.39600000	         -3.02117976	         11.32469465	          4.13285338	
          5.40200000	         -3.10475426	         11.28484198	          4.30650357	
          5.40800000	         -3.19129364	         11.23367422	          4.46226524	
          5.41400000	         -3.28227608	         11.16876984	          4.59673652	
          5.42000000	         -3.37968113	         11.08736844	          4.70634631	
          5.42600000	         -3.48598973	         10.98640249	          4.78743090	
          5.43200000	         -3.60413747	         10.86273385	          4.83625513	
          5.43800000	         -3.73727094	         10.71353985	          4.84940505	
          5.44400000	         -3.88855668	         10.53736521	          4.82467425	
          5.45000000	         -4.05967209	         10.33663185	          4.76207946	
          5.45600000	         -4.24845859	         10.12173903	          4.67042419	
          5.46200000	         -4.43019201	          9.92595872	          4.55473389	
          5.46800000	         -4.57505704	          9.79540704	          4.48560314	
          5.47400000	         -4.48519495	          9.85140116	          4.32272390	
          5.48000000	         -4.33669393	          9.93608694	          4.54375158	
          5.48600000	         -4.06532024	         10.25500817	          4.56435286	
          5.49200000	         -3.82031371	         10.44525157	          4.55446925	
          5.49800000	         -3.59313168	         10.58023761	          4.43373534	
          5.50400000	         -3.42424705	         10.62567331	          4.23989466	
          5.51000000	         -3.31522712	         10.58161851	          3.95841442	
          5.51600000	         -3.27568571	         10.43913870	          3.58642234	
          5.52200000	         -3.31571889	         10.19171286	          3.11597442	
          5.52800000	         -3.44813347	          9.83259533	          2.56138768	
          5.53400000	         -3.68258169	          9.37967172	          1.89704087	
          5.54000000	         -4.17719621	          8.87113096	          1.16939065	
          5.54600000	         -4.55527409	          8.42746084	          0.96309974	
          5.55200000	         -5.04286911	          7.92013742	          0.31637184	
          5.55800000	         -5.86468721	          7.42176233	         -0.14782823	
          5.56400000	         -6.65729587	          6.92060185	         -0.16392799	
          5.57000000	         -7.09214996	          6.88166712	         -1.11844314	
          5.57600000	         -7.02911978	          7.00026047	         -0.36304981	
          5.58200000	         -6.56712175	          7.55592150	         -0.45683583	
          5.58800000	         -5.89825828	          8.24248445	         -0.31659656	
          5.59400000	         -5.19699415	          8.96265313	         -0.14999408	
          5.60000000	         -4.47393924	          9.65359123	          0.03876568	
          5.60600000	         -3.75017240	         10.29441008	          0.21850637	
          5.61200000	         -3.02672861	         10.87293857	          0.37455934	
          5.61800000	         -2.30737048	         11.38291138	          0.49672702	
          5.62400000	         -1.60012739	         11.81956378	          0.58037292	
          5.63000000	         -0.91722426	         12.17883967	          0.62268273	
